<svg width="74" height="58" viewBox="0 0 74 58" fill="none" xmlns="http://www.w3.org/2000/svg">
<path d="M31.024 2.59388C32.8425 1.54955 34.903 1 37 1C39.097 1 41.1575 1.54955 42.976 2.59388L71.996 19.2579C72.301 19.4331 72.5543 19.6857 72.7305 19.9902C72.9066 20.2946 72.9994 20.6401 72.9994 20.9919C72.9994 21.3436 72.9066 21.6891 72.7305 21.9936C72.5543 22.298 72.301 22.5506 71.996 22.7259L61 29.0379V46.9899C61.0005 47.2527 60.9491 47.513 60.8489 47.756C60.7487 47.999 60.6016 48.2198 60.416 48.4059L60.408 48.4099L60.4 48.4219L60.372 48.4459L60.28 48.5339L59.96 48.8299C59.569 49.1729 59.1675 49.5038 58.756 49.8219C57.3193 50.925 55.7926 51.9058 54.192 52.7539C48.8982 55.562 42.9925 57.0185 37 56.9939C31.0075 57.0185 25.1018 55.562 19.808 52.7539C18.2088 51.9056 16.6834 50.9249 15.248 49.8219C14.7205 49.4146 14.2107 48.9848 13.72 48.5339C13.5001 48.34 13.3226 48.1028 13.1987 47.8371C13.0749 47.5714 13.0072 47.283 13 46.9899V29.0379L5 24.4459V42.9899C5 43.5203 4.78929 44.029 4.41421 44.4041C4.03914 44.7792 3.53043 44.9899 3 44.9899C2.46957 44.9899 1.96086 44.7792 1.58579 44.4041C1.21071 44.029 1 43.5203 1 42.9899V20.9899C0.999738 20.6308 1.09617 20.2782 1.27916 19.9692C1.46216 19.6603 1.72497 19.4062 2.04 19.2339L31.024 2.59388ZM42.976 39.3859C41.1575 40.4302 39.097 40.9798 37 40.9798C34.903 40.9798 32.8425 40.4302 31.024 39.3859L17 31.3339V46.0979C18.4565 47.2934 20.0282 48.3412 21.692 49.2259C25.212 51.1059 30.392 52.9899 37 52.9899C42.3345 53.017 47.5931 51.7254 52.308 49.2299C53.9722 48.3428 55.5439 47.2923 57 46.0939V31.3339L42.976 39.3819V39.3859ZM40.984 6.06588C39.7717 5.36966 38.398 5.00329 37 5.00329C35.602 5.00329 34.2283 5.36966 33.016 6.06588L7.016 20.9899L33.016 35.9179C34.2283 36.6141 35.602 36.9805 37 36.9805C38.398 36.9805 39.7717 36.6141 40.984 35.9179L66.984 20.9899L40.984 6.06188V6.06588Z" fill="#005C3D" stroke="#005C3D"/>
</svg>
