<svg width="60" height="59" viewBox="0 0 60 59" fill="none" xmlns="http://www.w3.org/2000/svg">
<path d="M59.872 52.1547L46.6326 17.2739C46.4495 16.7929 46.1732 16.3526 45.8194 15.9781C45.4656 15.6036 45.0412 15.3023 44.5706 15.0913C44.1 14.8804 43.5923 14.7639 43.0766 14.7486C42.5608 14.7333 42.0471 14.8194 41.5647 15.0021L35.3575 17.3327V11.5943C35.3575 10.597 34.9601 9.64055 34.2528 8.93535C33.5456 8.23016 32.5863 7.83398 31.586 7.83398H21.6073V3.76031C21.6073 2.76302 21.21 1.80657 20.5027 1.10137C19.7954 0.396175 18.8361 0 17.8359 0H3.92861C2.88668 0 1.88742 0.412682 1.15066 1.14726C0.413906 1.88184 0 2.87814 0 3.91699V56.7964C0 57.3158 0.206953 57.814 0.575331 58.1812C0.94371 58.5485 1.44334 58.7549 1.9643 58.7549H33.3932C33.9141 58.7549 34.4138 58.5485 34.7822 58.1812C35.1505 57.814 35.3575 57.3158 35.3575 56.7964V31.8647L45.179 57.7365C45.2706 57.977 45.4087 58.1971 45.5856 58.3844C45.7625 58.5716 45.9747 58.7223 46.21 58.8278C46.4453 58.9332 46.6991 58.9915 46.957 58.9991C47.2149 59.0068 47.4718 58.9637 47.713 58.8724L58.7327 54.6812C58.9739 54.5899 59.1947 54.4522 59.3825 54.2758C59.5703 54.0994 59.7214 53.8879 59.8272 53.6533C59.933 53.4187 59.9915 53.1656 59.9991 52.9084C60.0068 52.6513 59.9636 52.3952 59.872 52.1547ZM17.6787 11.418V54.8379H3.92861V3.91699H17.6787V11.418ZM31.4289 54.8379H21.6073V11.751H31.4289V54.8379ZM48.1451 54.3483L35.6128 21.3868L42.9593 18.6057L55.5112 51.5672L48.1451 54.3483Z" fill="#005C3D"/>
</svg>
