<svg width="67" height="62" viewBox="0 0 67 62" fill="none" xmlns="http://www.w3.org/2000/svg">
<path d="M11.8794 44.7765C12.3011 45.1952 12.6242 45.7008 12.8257 46.2571C13.0272 46.8135 13.1022 47.407 13.0453 47.9953C12.7598 50.7181 12.2185 53.4086 11.4284 56.0321C17.0956 54.7342 20.5569 53.2313 22.1291 52.4437C23.0208 51.9969 24.0477 51.891 25.0134 52.1463C27.7818 52.8763 30.635 53.2438 33.5 53.2393C49.7338 53.2393 61.9375 41.9596 61.9375 29.1289C61.9375 16.3021 49.7338 5.01841 33.5 5.01841C17.2662 5.01841 5.0625 16.3021 5.0625 29.1289C5.0625 35.0279 7.56906 40.501 11.8794 44.7765ZM9.87656 60.4684C8.91403 60.6572 7.94837 60.83 6.98 60.9868C6.1675 61.1154 5.55 60.2796 5.87094 59.5321C6.23165 58.6907 6.56228 57.8369 6.86219 56.9724L6.87437 56.9322C7.88187 54.039 8.7025 50.7117 9.00313 47.6135C4.01844 42.6709 1 36.2013 1 29.1289C1 13.5937 15.5519 1 33.5 1C51.4481 1 66 13.5937 66 29.1289C66 44.664 51.4481 57.2577 33.5 57.2577C30.2811 57.262 27.0755 56.8486 23.9653 56.0281C21.8528 57.0849 17.3069 59.0097 9.87656 60.4684V60.4684Z" fill="#005C3D" stroke="#005C3D"/>
<path d="M17.25 19.0834C17.25 18.5505 17.464 18.0395 17.8449 17.6627C18.2259 17.2859 18.7425 17.0742 19.2812 17.0742H47.7188C48.2575 17.0742 48.7741 17.2859 49.1551 17.6627C49.536 18.0395 49.75 18.5505 49.75 19.0834C49.75 19.6163 49.536 20.1273 49.1551 20.5041C48.7741 20.8809 48.2575 21.0926 47.7188 21.0926H19.2812C18.7425 21.0926 18.2259 20.8809 17.8449 20.5041C17.464 20.1273 17.25 19.6163 17.25 19.0834ZM17.25 29.1294C17.25 28.5966 17.464 28.0855 17.8449 27.7087C18.2259 27.3319 18.7425 27.1202 19.2812 27.1202H47.7188C48.2575 27.1202 48.7741 27.3319 49.1551 27.7087C49.536 28.0855 49.75 28.5966 49.75 29.1294C49.75 29.6623 49.536 30.1734 49.1551 30.5502C48.7741 30.927 48.2575 31.1386 47.7188 31.1386H19.2812C18.7425 31.1386 18.2259 30.927 17.8449 30.5502C17.464 30.1734 17.25 29.6623 17.25 29.1294ZM17.25 39.1755C17.25 38.6426 17.464 38.1315 17.8449 37.7547C18.2259 37.3779 18.7425 37.1663 19.2812 37.1663H35.5312C36.07 37.1663 36.5866 37.3779 36.9676 37.7547C37.3485 38.1315 37.5625 38.6426 37.5625 39.1755C37.5625 39.7083 37.3485 40.2194 36.9676 40.5962C36.5866 40.973 36.07 41.1847 35.5312 41.1847H19.2812C18.7425 41.1847 18.2259 40.973 17.8449 40.5962C17.464 40.2194 17.25 39.7083 17.25 39.1755Z" fill="#005C3D" stroke="#005C3D"/>
</svg>
