<svg width="60" height="60" viewBox="0 0 60 60" fill="none" xmlns="http://www.w3.org/2000/svg">
<g clip-path="url(#clip0_195_826)">
<path d="M54.375 11.25C55.1562 11.25 55.8887 11.3965 56.5723 11.6895C57.2559 11.9824 57.8516 12.3828 58.3594 12.8906C58.8672 13.3984 59.2676 13.9941 59.5605 14.6777C59.8535 15.3613 60 16.0938 60 16.875V50.625C60 51.4062 59.8535 52.1387 59.5605 52.8223C59.2676 53.5059 58.8672 54.1016 58.3594 54.6094C57.8516 55.1172 57.2559 55.5176 56.5723 55.8105C55.8887 56.1035 55.1562 56.25 54.375 56.25H5.625C4.84375 56.25 4.11133 56.1035 3.42773 55.8105C2.74414 55.5176 2.14844 55.1172 1.64062 54.6094C1.13281 54.1016 0.732422 53.5059 0.439453 52.8223C0.146484 52.1387 0 51.4062 0 50.625V16.875C0 16.0938 0.146484 15.3613 0.439453 14.6777C0.732422 13.9941 1.13281 13.3984 1.64062 12.8906C2.14844 12.3828 2.74414 11.9824 3.42773 11.6895C4.11133 11.3965 4.84375 11.25 5.625 11.25H18.75V7.5C18.75 6.97266 18.8477 6.48438 19.043 6.03516C19.2383 5.58594 19.502 5.19531 19.834 4.86328C20.166 4.53125 20.5664 4.25781 21.0352 4.04297C21.5039 3.82812 21.9922 3.73047 22.5 3.75H37.5C38.0273 3.75 38.5156 3.84766 38.9648 4.04297C39.4141 4.23828 39.8047 4.50195 40.1367 4.83398C40.4688 5.16602 40.7422 5.56641 40.957 6.03516C41.1719 6.50391 41.2695 6.99219 41.25 7.5V11.25H54.375ZM22.5 11.25H37.5V7.5H22.5V11.25ZM15 15V52.5H45V15H15ZM3.75 50.625C3.75 51.1328 3.93555 51.5723 4.30664 51.9434C4.67773 52.3145 5.11719 52.5 5.625 52.5H11.25V15H5.625C5.11719 15 4.67773 15.1855 4.30664 15.5566C3.93555 15.9277 3.75 16.3672 3.75 16.875V50.625ZM56.25 16.875C56.25 16.3672 56.0645 15.9277 55.6934 15.5566C55.3223 15.1855 54.8828 15 54.375 15H48.75V52.5H54.375C54.8828 52.5 55.3223 52.3145 55.6934 51.9434C56.0645 51.5723 56.25 51.1328 56.25 50.625V16.875Z" fill="#005C3D" stroke="#005C3D"/>
</g>
<defs>
<clipPath id="clip0_195_826">
<rect width="60" height="60" fill="white"/>
</clipPath>
</defs>
</svg>
