<svg width="59" height="59" viewBox="0 0 59 59" fill="none" xmlns="http://www.w3.org/2000/svg">
<path d="M15.5417 56.1667H42.6251" stroke="#005C3D" stroke-width="4" stroke-linecap="round" stroke-linejoin="round"/>
<path d="M2 42.625V7.41667C2 5.98008 2.57068 4.60233 3.5865 3.5865C4.60233 2.57068 5.98008 2 7.41667 2H50.75C52.1866 2 53.5643 2.57068 54.5802 3.5865C55.596 4.60233 56.1667 5.98008 56.1667 7.41667V42.625C56.1667 44.0616 55.596 45.4393 54.5802 46.4552C53.5643 47.471 52.1866 48.0417 50.75 48.0417H7.41667C5.98008 48.0417 4.60233 47.471 3.5865 46.4552C2.57068 45.4393 2 44.0616 2 42.625Z" stroke="#005C3D" stroke-width="4"/>
<path d="M20.9583 25.0209L26.3749 30.4375L37.2083 19.6042" stroke="#005C3D" stroke-width="4" stroke-linecap="round" stroke-linejoin="round"/>
</svg>
