<svg width="65" height="65" viewBox="0 0 65 65" fill="none" xmlns="http://www.w3.org/2000/svg">
<path d="M32.4999 32.5C39.9788 32.5 46.0416 26.4372 46.0416 18.9584C46.0416 11.4795 39.9788 5.41669 32.4999 5.41669C25.0211 5.41669 18.9583 11.4795 18.9583 18.9584C18.9583 26.4372 25.0211 32.5 32.4999 32.5Z" stroke="#005C3D" stroke-width="5"/>
<path d="M46.0417 59.5834H14.2621C13.494 59.5835 12.7346 59.4203 12.0343 59.1046C11.3341 58.7888 10.709 58.3278 10.2006 57.752C9.69218 57.1762 9.31203 56.4988 9.08539 55.7649C8.85875 55.031 8.79079 54.2572 8.88604 53.495L9.94229 45.0342C10.1879 43.0685 11.1432 41.2603 12.6285 39.9496C14.1138 38.6389 16.0268 37.9159 18.0077 37.9167H18.9583M43.3333 43.3334L49.4271 48.75L59.5833 37.9167" stroke="#005C3D" stroke-width="5" stroke-linecap="round" stroke-linejoin="round"/>
</svg>
