<svg width="26" height="26" viewBox="0 0 26 26" fill="none" xmlns="http://www.w3.org/2000/svg">
<path d="M13 7.04167C11.8216 7.04167 10.6696 7.39112 9.68973 8.04583C8.70988 8.70054 7.94619 9.6311 7.49522 10.7198C7.04425 11.8086 6.92625 13.0066 7.15616 14.1624C7.38606 15.3182 7.95353 16.3799 8.78682 17.2132C9.62011 18.0465 10.6818 18.6139 11.8376 18.8438C12.9934 19.0737 14.1914 18.9558 15.2802 18.5048C16.3689 18.0538 17.2995 17.2901 17.9542 16.3103C18.6089 15.3304 18.9583 14.1784 18.9583 13C18.9583 11.4198 18.3306 9.90423 17.2132 8.78682C16.0958 7.66942 14.5802 7.04167 13 7.04167ZM13 17.875C12.0358 17.875 11.0933 17.5891 10.2916 17.0534C9.48991 16.5177 8.86506 15.7564 8.49609 14.8656C8.12711 13.9748 8.03057 12.9946 8.21867 12.0489C8.40677 11.1033 8.87107 10.2346 9.55286 9.55286C10.2346 8.87107 11.1033 8.40677 12.0489 8.21867C12.9946 8.03057 13.9748 8.12711 14.8656 8.49609C15.7564 8.86506 16.5177 9.48991 17.0534 10.2916C17.5891 11.0933 17.875 12.0358 17.875 13C17.875 14.2929 17.3614 15.5329 16.4471 16.4471C15.5329 17.3614 14.2929 17.875 13 17.875ZM18.9583 0H7.04167C5.1741 0 3.38303 0.741888 2.06246 2.06246C0.741888 3.38303 0 5.1741 0 7.04167V18.9583C0 19.8831 0.182138 20.7987 0.536015 21.6531C0.889892 22.5074 1.40858 23.2837 2.06246 23.9375C3.38303 25.2581 5.1741 26 7.04167 26H18.9583C19.8831 26 20.7987 25.8179 21.6531 25.464C22.5074 25.1101 23.2837 24.5914 23.9375 23.9375C24.5914 23.2837 25.1101 22.5074 25.464 21.6531C25.8179 20.7987 26 19.8831 26 18.9583V7.04167C26 6.11694 25.8179 5.20127 25.464 4.34694C25.1101 3.4926 24.5914 2.71634 23.9375 2.06246C23.2837 1.40858 22.5074 0.889892 21.6531 0.536015C20.7987 0.182138 19.8831 0 18.9583 0ZM24.9167 18.9583C24.9167 20.5386 24.2889 22.0541 23.1715 23.1715C22.0541 24.2889 20.5386 24.9167 18.9583 24.9167H7.04167C5.46142 24.9167 3.94589 24.2889 2.82849 23.1715C1.71108 22.0541 1.08333 20.5386 1.08333 18.9583V7.04167C1.08333 5.46142 1.71108 3.94589 2.82849 2.82849C3.94589 1.71108 5.46142 1.08333 7.04167 1.08333H18.9583C20.5386 1.08333 22.0541 1.71108 23.1715 2.82849C24.2889 3.94589 24.9167 5.46142 24.9167 7.04167V18.9583ZM21.125 5.95833C21.125 6.1726 21.0615 6.38205 20.9424 6.5602C20.8234 6.73836 20.6542 6.87721 20.4562 6.9592C20.2583 7.0412 20.0405 7.06265 19.8303 7.02085C19.6202 6.97905 19.4271 6.87587 19.2756 6.72437C19.1241 6.57286 19.021 6.37983 18.9792 6.16968C18.9373 5.95954 18.9588 5.74171 19.0408 5.54376C19.1228 5.34581 19.2616 5.17661 19.4398 5.05757C19.618 4.93854 19.8274 4.875 20.0417 4.875C20.329 4.875 20.6045 4.98914 20.8077 5.1923C21.0109 5.39547 21.125 5.67102 21.125 5.95833Z" fill="white"/>
</svg>
