<svg width="49" height="65" viewBox="0 0 49 65" fill="none" xmlns="http://www.w3.org/2000/svg">
<path d="M18.4062 8.125C17.8675 8.125 17.3509 8.33901 16.9699 8.71994C16.589 9.10087 16.375 9.61753 16.375 10.1562C16.375 10.695 16.589 11.2116 16.9699 11.5926C17.3509 11.9735 17.8675 12.1875 18.4062 12.1875H30.5938C31.1325 12.1875 31.6491 11.9735 32.0301 11.5926C32.411 11.2116 32.625 10.695 32.625 10.1562C32.625 9.61753 32.411 9.10087 32.0301 8.71994C31.6491 8.33901 31.1325 8.125 30.5938 8.125H18.4062ZM36.6875 32.5C36.6875 35.7323 35.4035 38.8323 33.1179 41.1179C30.8323 43.4035 27.7323 44.6875 24.5 44.6875C21.2677 44.6875 18.1677 43.4035 15.8821 41.1179C13.5965 38.8323 12.3125 35.7323 12.3125 32.5C12.3125 29.2677 13.5965 26.1677 15.8821 23.8821C18.1677 21.5965 21.2677 20.3125 24.5 20.3125C27.7323 20.3125 30.8323 21.5965 33.1179 23.8821C35.4035 26.1677 36.6875 29.2677 36.6875 32.5Z" fill="#005C3D"/>
<path d="M10.2812 0C7.58765 0 5.00436 1.07003 3.0997 2.9747C1.19503 4.87936 0.125 7.46265 0.125 10.1562V56.875C0.125 59.0299 0.981024 61.0965 2.50476 62.6202C4.02849 64.144 6.09512 65 8.25 65H40.75C42.9049 65 44.9715 64.144 46.4952 62.6202C48.019 61.0965 48.875 59.0299 48.875 56.875V10.1562C48.875 7.46265 47.805 4.87936 45.9003 2.9747C43.9956 1.07003 41.4124 0 38.7188 0L10.2812 0ZM4.1875 10.1562C4.1875 8.54009 4.82952 6.99012 5.97232 5.84732C7.11512 4.70452 8.66509 4.0625 10.2812 4.0625H38.7188C40.3349 4.0625 41.8849 4.70452 43.0277 5.84732C44.1705 6.99012 44.8125 8.54009 44.8125 10.1562V54.0109C43.8379 53.2314 42.7808 52.5611 41.66 52.0122C38.28 50.3222 32.8809 48.75 24.5 48.75C16.1191 48.75 10.72 50.3222 7.34 52.0122C6.21923 52.5611 5.16207 53.2314 4.1875 54.0109V10.1562Z" fill="#005C3D"/>
</svg>
