<svg width="29" height="25" viewBox="0 0 29 25" fill="none" xmlns="http://www.w3.org/2000/svg">
<path d="M26.7718 1.18311C27.6031 1.18311 28.2302 1.91227 27.8947 3.26852L23.826 22.4456C23.5416 23.8091 22.7177 24.1373 21.5802 23.5029L11.875 16.3352C11.8373 16.3082 11.8067 16.2726 11.7855 16.2314C11.7643 16.1902 11.7533 16.1445 11.7533 16.0982C11.7533 16.0519 11.7643 16.0062 11.7855 15.965C11.8067 15.9238 11.8373 15.8882 11.875 15.8612L23.0822 5.7404C23.5927 5.28831 22.9729 5.06956 22.302 5.4779L8.23641 14.3519C8.19375 14.3797 8.14532 14.3974 8.09478 14.4037C8.04425 14.4101 7.99294 14.4048 7.94474 14.3883L1.97287 12.4998C0.645787 12.1133 0.645786 11.2019 2.27183 10.5529L26.1666 1.33623C26.3561 1.24532 26.5619 1.19325 26.7718 1.18311V1.18311Z" stroke="white" stroke-linecap="round" stroke-linejoin="round"/>
</svg>
