<svg width="30" height="15" viewBox="0 0 30 15" fill="none" xmlns="http://www.w3.org/2000/svg">
<path d="M27.9177 0.336299L14.9987 12.2911L2.07967 0.336299C1.84885 0.122274 1.53899 0.00245361 1.21634 0.00245361C0.893678 0.00245361 0.583822 0.122274 0.353002 0.336299C0.241239 0.440251 0.15245 0.564328 0.0918357 0.701265C0.0312214 0.838201 0 0.985244 0 1.13378C0 1.28231 0.0312214 1.42935 0.0918357 1.56629C0.15245 1.70323 0.241239 1.82731 0.353002 1.93126L14.0966 14.6517C14.3379 14.875 14.6616 15 14.9987 15C15.3357 15 15.6594 14.875 15.9008 14.6517L29.6444 1.93371C29.7569 1.82968 29.8464 1.7053 29.9074 1.56791C29.9685 1.43052 30 1.2829 30 1.13378C30 0.984653 29.9685 0.837037 29.9074 0.699647C29.8464 0.562256 29.7569 0.437875 29.6444 0.333844C29.4135 0.119819 29.1037 0 28.781 0C28.4584 0 28.1485 0.119819 27.9177 0.333844V0.336299Z" fill="#878787"/>
</svg>
