<svg width="16" height="8" viewBox="0 0 16 8" fill="none" xmlns="http://www.w3.org/2000/svg">
<path d="M14.8894 0.179359L7.99929 6.55527L1.10916 0.179359C0.986054 0.0652126 0.820797 0.00130859 0.648713 0.00130859C0.476628 0.00130859 0.311372 0.0652126 0.188268 0.179359C0.128661 0.234801 0.0813067 0.300975 0.0489791 0.374008C0.0166514 0.447041 0 0.525463 0 0.604682C0 0.6839 0.0166514 0.762322 0.0489791 0.835355C0.0813067 0.908388 0.128661 0.974563 0.188268 1.03L7.51817 7.81423C7.64689 7.93334 7.81954 8 7.99929 8C8.17905 8 8.3517 7.93334 8.48042 7.81423L15.8103 1.03131C15.8703 0.97583 15.9181 0.909493 15.9506 0.836218C15.9832 0.762943 16 0.684216 16 0.604682C16 0.525148 15.9832 0.44642 15.9506 0.373145C15.9181 0.29987 15.8703 0.233533 15.8103 0.17805C15.6872 0.0639034 15.522 0 15.3499 0C15.1778 0 15.0125 0.0639034 14.8894 0.17805V0.179359Z" fill="black"/>
</svg>
